<svg width="100%" height="100%" viewBox="0 0 3734 2667" version="1.1" xmlns="http://www.w3.org/2000/svg"
     xmlns:xlink="http://www.w3.org/1999/xlink" xml:space="preserve"
     style="fill-rule:evenodd;clip-rule:evenodd;stroke-linejoin:round;stroke-miterlimit:1.41421;">
    <rect x="0" y="0" width="3733.33" height="2666.67" style="fill:none;"/>
    <path d="M1600,1066.67C1600,1066.67 1412.11,690.89 1351.76,570.186C1340.47,547.6 1317.38,533.333 1292.13,533.333L600,533.333C582.319,533.333 565.362,540.357 552.86,552.86C540.357,565.362 533.333,582.319 533.333,600L533.333,2066.67C533.333,2084.35 540.357,2101.3 552.86,2113.81C565.362,2126.31 582.319,2133.33 600,2133.33C765.081,2133.33 1187.88,2133.33 1303.64,2133.33C1322.54,2133.33 1340.55,2125.31 1353.19,2111.26C1496.45,1952.09 2370.22,981.24 2513.47,822.069C2526.11,808.021 2544.12,800 2563.02,800C2626.86,800 2778.5,800 2866.67,800C2884.35,800 2901.3,807.024 2913.81,819.526C2926.31,832.029 2933.33,848.986 2933.33,866.667C2933.33,1058.18 2933.33,1608.48 2933.33,1800C2933.33,1817.68 2926.31,1834.64 2913.81,1847.14C2901.3,1859.64 2884.35,1866.67 2866.67,1866.67C2773.77,1866.67 2610.38,1866.67 2553.52,1866.67C2540.36,1866.67 2527.49,1862.77 2516.54,1855.47C2440.64,1804.87 2133.33,1600 2133.33,1600C2133.33,1600 2321.22,1975.78 2381.57,2096.48C2392.87,2119.07 2415.95,2133.33 2441.2,2133.33L3133.33,2133.33C3170.15,2133.33 3200,2103.49 3200,2066.67L3200,600C3200,582.319 3192.98,565.362 3180.47,552.86C3167.97,540.357 3151.01,533.333 3133.33,533.333C2968.25,533.333 2545.45,533.333 2429.69,533.333C2410.79,533.333 2392.78,541.355 2380.14,555.402C2236.88,714.574 1363.12,1685.43 1219.86,1844.6C1207.22,1858.64 1189.21,1866.67 1170.31,1866.67L866.667,1866.67C848.986,1866.67 832.029,1859.64 819.526,1847.14C807.024,1834.64 800,1817.68 800,1800C800,1608.48 800,1058.18 800,866.667C800,848.986 807.024,832.029 819.526,819.526C832.029,807.024 848.986,800 866.667,800C959.566,800 1122.95,800 1179.82,800C1192.98,800 1205.84,803.896 1216.8,811.197C1292.7,861.798 1600,1066.67 1600,1066.67Z"
          style="fill:url(#_Linear1);"/>
    <defs>
        <linearGradient id="_Linear1" x1="0" y1="0" x2="1" y2="0" gradientUnits="userSpaceOnUse"
                        gradientTransform="matrix(2666.67,0,0,1600,533.333,1333.33)"><stop offset="0" style="stop-color:rgb(255,11,230);stop-opacity:1"/>
            <stop offset="1" style="stop-color:rgb(31,109,255);stop-opacity:1"/></linearGradient>
    </defs>
</svg>
